<?xml version="1.0" standalone="no"?>
<!DOCTYPE svg PUBLIC "-//W3C//DTD SVG 20010904//EN"
 "http://www.w3.org/TR/2001/REC-SVG-20010904/DTD/svg10.dtd">
<svg version="1.0" xmlns="http://www.w3.org/2000/svg"
 width="618.000000pt" height="618.000000pt" viewBox="0 0 618.000000 618.000000"
 preserveAspectRatio="xMidYMid meet">
<metadata>
Created by potrace 1.11, written by Peter Selinger 2001-2013
</metadata>
<g transform="translate(0.000000,618.000000) scale(0.100000,-0.100000)"
fill="#000000" stroke="none">
<path d="M2745 6144 c-751 -82 -1468 -458 -1969 -1034 -392 -450 -635 -977
-728 -1580 -19 -126 -22 -184 -22 -440 0 -251 3 -315 21 -430 100 -639 352
-1171 780 -1645 363 -402 887 -725 1429 -879 644 -184 1362 -144 1985 109 991
404 1710 1301 1878 2345 188 1161 -283 2302 -1234 2992 -440 319 -957 514
-1509 567 -149 15 -473 12 -631 -5z m675 -739 c765 -111 1424 -593 1765 -1289
163 -331 238 -652 238 -1016 1 -472 -124 -894 -381 -1286 -460 -701 -1262
-1105 -2094 -1053 -841 52 -1577 543 -1953 1301 -474 957 -237 2106 578 2804
366 313 810 502 1302 554 112 12 419 4 545 -15z"/>
<path d="M2733 4077 c-202 -352 -357 -611 -365 -611 -7 1 -214 139 -461 308
-246 168 -450 306 -454 306 -6 0 2 -1219 13 -1867 l7 -373 1618 0 1619 0 0 68
c0 37 5 539 11 1115 6 577 9 1051 6 1054 -3 3 -211 -135 -462 -307 -380 -260
-459 -310 -469 -299 -7 8 -165 280 -351 604 -185 325 -342 595 -349 602 -8 9
-96 -136 -363 -600z"/>
</g>
</svg>
